<?xml version="1.0" encoding="UTF-8"?>
<!DOCTYPE svg PUBLIC "-//W3C//DTD SVG 1.1//EN" "http://www.w3.org/Graphics/SVG/1.1/DTD/svg11.dtd">
<!-- Creator: CorelDRAW X6 -->
<svg xmlns="http://www.w3.org/2000/svg" xml:space="preserve" width="1660px" height="1038px" version="1.1" style="shape-rendering:geometricPrecision; text-rendering:geometricPrecision; image-rendering:optimizeQuality; fill-rule:evenodd; clip-rule:evenodd"
viewBox="0 0 166167 103884"
 xmlns:xlink="http://www.w3.org/1999/xlink">
 <defs>
  <style type="text/css">
   <![CDATA[
    .fil0 {fill:#35516F;fill-rule:nonzero}
    .fil1 {fill:#73808F;fill-rule:nonzero}
   ]]>
  </style>
 </defs>
 <g id="Ebene_x0020_1">
  <metadata id="CorelCorpID_0Corel-Layer"/>
  <path class="fil0" d="M95223 70310c0,5581 3875,9041 8409,9041 3240,0 5093,-1851 5093,-1851l48 0c0,0 -24,365 -24,730l0 830 2730 0 0 -7385c0,-1146 -487,-1633 -1657,-1633l-2803 0 0 2704 1048 0c341,0 536,172 536,537l0 1292c0,0 -1633,1803 -4387,1803 -3095,0 -5679,-2315 -5679,-6092 0,-3510 2559,-5875 5558,-5875 2632,0 4435,1535 4435,1535l1804 -2291c0,0 -2072,-2193 -6313,-2193 -5021,0 -8798,3876 -8798,8848zm70944 8750l0 -2609 -947 0c-341,0 -536,-195 -536,-535l0 -12504c0,-1145 -513,-1657 -1658,-1657l-2949 0 0 2632 975 0c341,0 536,171 536,536l0 2194c0,414 24,731 24,731l-48 0c0,0 -877,-1511 -3583,-1511 -3290,0 -5655,2559 -5655,6507 0,3851 2170,6507 5533,6507 2851,0 3875,-2022 3875,-2022l50 0 0 463c0,731 413,1268 1534,1268l2849 0zm-51423 -4437c0,3388 1633,4728 4290,4728 2145,0 3705,-1291 4290,-2582l49 0c0,0 -25,267 -25,560l0 342c0,876 561,1389 1632,1389l2852 0 0 -2609 -975 0c-340,0 -536,-195 -536,-535l0 -9287 -3095 0 0 5703c0,2219 -1243,4193 -3485,4193 -1536,0 -1926,-1024 -1926,-2535l0 -5728c0,-1121 -486,-1633 -1633,-1633l-2949 0 0 2632 975 0c342,0 536,171 536,537l0 4825zm14381 853c0,2487 2022,3875 4240,3875 2803,0 3753,-2193 3753,-2193l49 0c0,0 -24,220 -24,536 0,732 438,1366 1583,1366l2779 0 0 -2609 -975 0c-341,0 -536,-195 -536,-535l0 -4631c0,-2779 -1219,-4948 -5361,-4948 -1293,0 -4559,243 -4559,2559l0 1316 2876 0 0 -658c0,-683 1097,-828 1657,-828 1585,0 2292,658 2292,2437l0 98 -390 0c-2024,0 -7384,316 -7384,4215zm3119 -146c0,-1730 2559,-1949 4167,-1949l537 0 0 293c0,1510 -1170,3265 -2828,3265 -1268,0 -1876,-780 -1876,-1609zm11747 3730l3072 0 0 -4924c0,-731 97,-1414 267,-2023 561,-1852 2072,-2607 3387,-2607 440,0 757,48 757,48l0 -3047c0,0 -293,-49 -561,-49 -1900,0 -3388,1414 -3948,3193l-49 0c0,0 49,-317 49,-780l0 -731c0,-1047 -560,-1511 -1658,-1511l-2827 0 0 2632 975 0c341,0 536,171 536,537l0 9262zm14551 -2316c-1829,0 -3071,-1535 -3071,-3900 0,-2461 1413,-3851 3119,-3851 2072,0 3071,1902 3071,3827 0,2754 -1511,3924 -3119,3924z"/>
  <path class="fil1" d="M0 76915c0,0 1926,2437 5435,2437 3217,0 5192,-2169 5192,-4728 0,-5654 -8458,-4680 -8458,-8653 0,-1462 1292,-2754 3510,-2754 1584,0 2998,756 2998,1779l0 805 1609 0 0 -1219c0,-2242 -2974,-2949 -4632,-2949 -3168,0 -5239,1999 -5239,4387 0,5313 8457,4460 8457,8701 0,1828 -1511,3047 -3388,3047 -2706,0 -4435,-2096 -4435,-2096l-1049 1243zm12819 -3973c0,3777 2779,6410 6410,6410 2779,0 4558,-1755 4558,-1755l-804 -1243c0,0 -1438,1511 -3680,1511 -2535,0 -4705,-1779 -4753,-4874l9408 0c0,0 49,-536 49,-828 0,-3047 -1755,-5656 -5143,-5656 -3290,0 -6045,2413 -6045,6435zm1804 -1267c414,-2462 2194,-3778 4217,-3778 1803,0 3364,1243 3460,3778l-7677 0zm11552 4045c0,2438 2121,3632 4168,3632 3071,0 4095,-2657 4070,-2657l49 0c0,0 -24,366 -24,902 0,999 414,1463 1462,1463l1682 0 0 -1439 -1024 0c-341,0 -536,-170 -536,-536l0 -5874c0,-2632 -926,-4704 -4802,-4704 -1071,0 -3996,367 -3996,2072l0 1170 1583 0 0 -779c0,-903 1780,-1073 2389,-1073 2243,0 3169,901 3169,3461l0 146 -683 0c-2121,0 -7507,146 -7507,4216zm1707 -97c0,-2754 3850,-2803 5776,-2803l707 0 0 561c0,2120 -1414,4557 -3753,4557 -1829,0 -2730,-1169 -2730,-2315zm12332 3437l1657 0 0 -5168c0,-780 98,-1608 341,-2388 537,-1804 1829,-3168 3559,-3168 317,0 609,48 609,48l0 -1633c0,0 -317,-73 -658,-73 -1925,0 -3290,1414 -3875,3266l-49 0c0,0 49,-414 49,-926l0 -829c0,-975 -463,-1389 -1487,-1389l-1706 0 0 1438 1024 0c341,0 536,195 536,537l0 10285zm7190 -6118c0,3802 2778,6410 6434,6410 3145,0 4802,-1998 4802,-1998l-780 -1244c0,0 -1438,1731 -3948,1731 -2583,0 -4802,-1877 -4802,-4899 0,-2973 2121,-4948 4753,-4948 1024,0 2803,487 2803,1512l0 706 1559 0 0 -1096c0,-2023 -2973,-2609 -4362,-2609 -3656,0 -6459,2682 -6459,6435zm13868 6118l1657 0 0 -5874c0,-585 50,-1145 196,-1633 560,-2047 2364,-3486 4436,-3486 2388,0 2680,1706 2680,3632l0 5874c0,1048 439,1487 1488,1487l1729 0 0 -1439 -1023 0c-341,0 -536,-170 -536,-536l0 -5824c0,-3023 -1073,-4754 -4119,-4754 -2754,0 -4387,1877 -4851,3047l-48 0c0,0 48,-438 48,-999l0 -5191c0,-1000 -438,-1439 -1486,-1439l-1731 0 0 1439 1024 0c342,0 536,195 536,535l0 15161z"/>
  <path class="fil0" d="M99259 9608c-12026,-15025 -43747,-14992 -49018,18759 0,0 5609,-942 8795,-6791 4705,-8636 18791,-15078 29771,-7222 1375,-3017 4410,-5117 7940,-5117 874,0 1716,132 2512,371z"/>
  <path class="fil1" d="M88358 15573c-12097,-8575 -24393,1716 -24393,1716 0,1407 -43,2882 -43,2882 1990,-1521 8047,-4083 15089,-2299 -34,-813 0,-2651 0,-2651 0,0 4774,1309 9424,5412 -269,-841 -417,-1736 -417,-2666 0,-832 123,-1633 340,-2394z"/>
  <path class="fil0" d="M71372 41574c0,0 8391,-8126 7596,-22390 -7738,-2375 -22053,1410 -21158,14741 1212,18044 -4412,20437 -4412,20437 6505,4389 13496,-1639 25707,6867 2409,-11204 -7733,-19655 -7733,-19655z"/>
  <path class="fil0" d="M80763 17140c755,15876 -7999,24331 -7999,24331 0,0 11691,9757 6721,23010 2744,802 7793,18681 7793,18681 114,-186 -771,-16860 1878,-21971 0,0 -986,-1325 -1063,-1556 2023,-7395 1351,-11760 659,-13119 -762,-1496 -850,-1447 -2010,-1530 -1153,-82 -2187,-206 -3068,-442 -2417,-646 -2901,-1209 -3076,-2588 -196,-1530 1116,-2250 3720,-1860 2975,445 6192,1784 7311,3513 99,384 -1224,8238 -1081,8460 452,705 1262,2142 1262,2142 3066,-14782 7928,-28256 -11047,-37071z"/>
  <path class="fil1" d="M16827 100494c480,321 1428,588 2295,588 2123,0 3137,-1215 3137,-2603 0,-1321 -761,-2042 -2282,-2643 -1242,-480 -1789,-894 -1789,-1735 0,-614 467,-1348 1695,-1348 814,0 1415,254 1695,427l321 -947c-387,-227 -1068,-441 -1976,-441 -1748,0 -2909,1041 -2909,2443 0,1254 907,2029 2375,2562 1215,454 1695,948 1695,1776 0,920 -694,1534 -1881,1534 -801,0 -1549,-253 -2069,-587l-307 974zm12265 -2571c27,-134 40,-320 40,-563 0,-1190 -547,-3045 -2656,-3045 -1881,0 -3043,1535 -3043,3501 0,1933 1202,3252 3177,3252 1028,0 1748,-227 2162,-413l-213 -826c-427,172 -948,318 -1789,318 -1174,0 -2175,-651 -2202,-2237l4524 13zm-4511 -856c94,-817 601,-1911 1802,-1911 1308,0 1628,1174 1615,1911l-3417 0zm10411 2760c-334,147 -774,307 -1442,307 -1281,0 -2242,-921 -2242,-2416 0,-1348 801,-2456 2282,-2456 641,0 1081,161 1362,308l266 -895c-320,-173 -934,-347 -1628,-347 -2109,0 -3470,1455 -3470,3444 0,1988 1268,3310 3217,3310 867,0 1548,-227 1855,-374l-200 -881z"/>
  <path class="fil1" d="M41972 94475l-1175 0 0 3951c0,227 -40,440 -106,600 -214,534 -761,1081 -1549,1081 -1054,0 -1441,-840 -1441,-2068l0 -3564 -1175 0 0 3777c0,2256 1215,2830 2229,2830 1148,0 1842,-681 2136,-1202l27 0 66 1055 1041 0c-40,-507 -53,-1095 -53,-1762l0 -4698zm1949 6460l1174 0 0 -3444c0,-200 13,-387 40,-560 160,-868 748,-1495 1575,-1495 160,0 280,13 414,27l0 -1095c-107,-26 -200,-40 -320,-40 -788,0 -1509,547 -1802,1415l-40 0 -54 -1268 -1027 0c40,601 53,1255 53,2015l-13 4445zm5539 0l0 -6460 -1175 0 0 6460 1175 0zm-601 -7648c467,0 761,-347 761,-761 0,-413 -294,-747 -748,-747 -453,0 -761,334 -761,747 0,414 294,761 735,761l13 0zm2816 0l0 1188 -1001 0 0 894 1001 0 0 3530c0,755 134,1328 454,1689 280,307 721,494 1268,494 454,0 814,-80 1041,-161l-54 -894c-173,54 -360,80 -680,80 -654,0 -881,-453 -881,-1254l0 -3484 1682 0 0 -894 -1682 0 0 -1548 -1148 360zm3416 1188l2376 5966c67,133 93,227 93,294 0,80 -40,160 -93,280 -280,600 -667,1054 -988,1308 -347,307 -734,494 -1027,574l293 987c294,-53 854,-253 1442,-747 800,-707 1374,-1842 2215,-4057l1762 -4605 -1241 0 -1282 3790c-160,468 -293,961 -413,1349l-27 0c-107,-388 -267,-895 -427,-1322l-1402 -3817 -1281 0zm11251 6460l0 -5566 1549 0 0 -894 -1562 0 0 -347c0,-988 267,-1869 1255,-1869 347,0 574,67 761,147l146 -907c-227,-94 -574,-187 -1001,-187 -534,0 -1121,173 -1561,600 -547,521 -761,1348 -761,2256l0 307 -894 0 0 894 894 0 0 5566 1174 0zm5099 147c1535,0 3203,-1041 3203,-3444 0,-1962 -1254,-3310 -3109,-3310 -1776,0 -3204,1268 -3204,3430 0,2042 1362,3324 3097,3324l13 0zm13 -881c-1134,0 -1935,-1068 -1935,-2483 0,-1228 601,-2509 1975,-2509 1389,0 1936,1375 1936,2469 0,1468 -841,2523 -1962,2523l-14 0zm4672 734l1174 0 0 -3444c0,-200 14,-387 40,-560 160,-868 748,-1495 1575,-1495 160,0 281,13 414,27l0 -1095c-107,-26 -200,-40 -320,-40 -788,0 -1509,547 -1802,1415l-40 0 -53 -1268 -1028 0c40,601 53,1255 53,2015l-13 4445z"/>
  <path class="fil1" d="M88057 95756l-3484 0 0 -2843 3697 0 0 -974 -4871 0 0 8996 5072 0 0 -974 -3898 0 0 -3244 3484 0 0 -961zm1909 5179l1174 0 0 -9476 -1174 0 0 9476zm7701 -3964c0,-1295 -480,-2643 -2469,-2643 -814,0 -1601,227 -2135,561l267 787c453,-307 1081,-480 1695,-480 1321,-14 1468,961 1468,1495l0 133c-2496,-13 -3884,841 -3884,2402 0,935 667,1856 1975,1856 921,0 1628,-454 1975,-961l41 0 106 814 1055 0c-67,-441 -94,-988 -94,-1548l0 -2416zm-1148 1788c0,120 -13,254 -53,374 -187,547 -734,1081 -1588,1081 -587,0 -1095,-347 -1095,-1121 0,-1255 1455,-1481 2736,-1455l0 1121z"/>
  <path class="fil1" d="M99081 100628c454,267 1108,454 1815,454 1508,0 2402,-801 2402,-1949 0,-974 -587,-1535 -1694,-1949 -841,-320 -1215,-560 -1215,-1107 0,-481 374,-881 1068,-881 600,0 1067,227 1321,374l280 -841c-347,-227 -921,-401 -1575,-401 -1374,0 -2229,854 -2229,1895 0,775 548,1402 1722,1829 854,320 1188,627 1188,1188 0,547 -400,961 -1241,961 -587,0 -1201,-240 -1562,-454l-280 881zm5993 -7341l0 1188 -1001 0 0 894 1001 0 0 3530c0,755 133,1328 453,1689 281,307 721,494 1268,494 454,0 815,-80 1041,-161l-53 -894c-173,54 -360,80 -681,80 -654,0 -881,-453 -881,-1254l0 -3484 1682 0 0 -894 -1682 0 0 -1548 -1147 360zm5325 7648l0 -6460 -1175 0 0 6460 1175 0zm-601 -7648c467,0 761,-347 761,-761 0,-413 -294,-747 -747,-747 -454,0 -761,334 -761,747 0,414 294,761 734,761l13 0zm6954 6540c-334,147 -774,307 -1441,307 -1282,0 -2243,-921 -2243,-2416 0,-1348 801,-2456 2283,-2456 640,0 1081,161 1361,308l267 -895c-320,-173 -934,-347 -1628,-347 -2109,0 -3471,1455 -3471,3444 0,1988 1268,3310 3217,3310 868,0 1548,-227 1855,-374l-200 -881zm1135 801c453,267 1107,454 1815,454 1508,0 2402,-801 2402,-1949 0,-974 -587,-1535 -1695,-1949 -841,-320 -1215,-560 -1215,-1107 0,-481 374,-881 1068,-881 601,0 1068,227 1322,374l280 -841c-347,-227 -921,-401 -1575,-401 -1375,0 -2229,854 -2229,1895 0,775 547,1402 1722,1829 854,320 1188,627 1188,1188 0,547 -401,961 -1242,961 -587,0 -1201,-240 -1561,-454l-280 881zm10917 -2705c27,-134 40,-320 40,-563 0,-1190 -547,-3045 -2656,-3045 -1882,0 -3043,1535 -3043,3501 0,1933 1201,3252 3177,3252 1027,0 1748,-227 2162,-413l-214 -826c-427,172 -947,318 -1788,318 -1175,0 -2176,-651 -2202,-2237l4524 13zm-4511 -856c93,-817 600,-1911 1802,-1911 1308,0 1628,1174 1615,1911l-3417 0zm10557 -96c0,-1295 -480,-2643 -2469,-2643 -814,0 -1602,227 -2136,561l267 787c454,-307 1081,-480 1695,-480 1322,-14 1469,961 1469,1495l0 133c-2496,-13 -3884,841 -3884,2402 0,935 667,1856 1975,1856 921,0 1628,-454 1975,-961l40 0 107 814 1055 0c-67,-441 -94,-988 -94,-1548l0 -2416zm-1148 1788c0,120 -13,254 -53,374 -187,547 -734,1081 -1588,1081 -588,0 -1095,-347 -1095,-1121 0,-1255 1455,-1481 2736,-1455l0 1121zm3030 2176l1174 0 0 -3444c0,-200 14,-387 41,-560 160,-868 747,-1495 1574,-1495 161,0 281,13 414,27l0 -1095c-107,-26 -200,-40 -320,-40 -788,0 -1508,547 -1802,1415l-40 0 -53 -1268 -1028 0c40,601 53,1255 53,2015l-13 4445zm8689 -1108c-334,147 -774,307 -1441,307 -1282,0 -2243,-921 -2243,-2416 0,-1348 801,-2456 2283,-2456 640,0 1081,161 1361,308l267 -895c-320,-173 -934,-347 -1628,-347 -2109,0 -3471,1455 -3471,3444 0,1988 1268,3310 3217,3310 868,0 1548,-227 1855,-374l-200 -881zm1575 1108l1174 0 0 -3897c0,-227 14,-401 80,-561 227,-641 815,-1174 1575,-1174 1108,0 1495,867 1495,1921l0 3711 1175 0 0 -3844c0,-2229 -1388,-2763 -2256,-2763 -440,0 -854,120 -1201,334 -360,187 -654,494 -841,827l-27 0 0 -4030 -1174 0 0 9476z"/>
 </g>
</svg>
